<?xml version="1.0" encoding="UTF-8"?>
<svg width="124px" height="30px" viewBox="0 0 124 30" version="1.1" xmlns="http://www.w3.org/2000/svg" xmlns:xlink="http://www.w3.org/1999/xlink">
    <!-- Generator: Sketch 60 (88103) - https://sketch.com -->
    <title>Athomsphere_Mid</title>
    <desc>Created with Sketch.</desc>
    <g id="Athomsphere_Mid" stroke="none" stroke-width="1" fill="none" fill-rule="evenodd">
        <g id="B-Circle-AtomSphere-Logo-2-Copy-3" fill-rule="nonzero">
            <g id="B-Circle-AtomSphere-Logo" transform="translate(0.000000, 0.468262)">
                <g id="Group" transform="translate(38.422164, 12.903226)" fill="#FF7C66">
                    <path d="M3.12180082,8.30645161 L2.48143142,10.0806452 L0,10.0806452 L3.76217022,0.403225806 L6.48374016,0.403225806 L10.3259566,10.0806452 L7.84452513,10.0806452 L7.20415574,8.30645161 L3.12180082,8.30645161 Z M6.56378634,6.4516129 L5.20300136,2.74193548 L3.84221639,6.4516129 L6.56378634,6.4516129 Z" id="Shape"></path>
                    <path d="M13.9280344,5 L13.9280344,7.25806452 C13.9280344,8.38709677 14.9686347,8.30645161 16.009235,8.06451613 L16.1693273,9.83870968 C15.6090041,10 14.9686347,10.1612903 14.3282653,10.1612903 C12.807388,10.1612903 11.6867415,9.43548387 11.6867415,7.58064516 L11.6867415,5 L10.6461413,5 L10.6461413,3.22580645 L11.7667877,3.22580645 L11.7667877,1.0483871 L13.9280344,1.0483871 L13.9280344,3.22580645 L15.8491426,3.22580645 L15.8491426,5.08064516 L13.9280344,5 Z" id="Path"></path>
                    <path d="M24.3340371,6.61290323 C24.4140833,8.62903226 22.8131598,10.3225806 20.8120055,10.4032258 C18.8108511,10.483871 17.1298814,8.87096774 17.0498352,6.85483871 C16.9697891,4.83870968 18.5707126,3.14516129 20.5718669,3.06451613 C20.5718669,3.06451613 20.6519131,3.06451613 20.6519131,3.06451613 C22.5730213,2.98387097 24.253991,4.51612903 24.3340371,6.4516129 C24.3340371,6.53225806 24.3340371,6.53225806 24.3340371,6.61290323 Z M19.211082,6.61290323 C19.1310358,7.41935484 19.691359,8.14516129 20.4918208,8.22580645 C21.2922825,8.30645161 22.0126981,7.74193548 22.0927443,6.93548387 C22.0927443,6.85483871 22.0927443,6.69354839 22.0927443,6.61290323 C22.1727904,5.80645161 21.6124672,5.08064516 20.8120055,5 C20.0115437,4.91935484 19.2911281,5.48387097 19.211082,6.29032258 C19.211082,6.4516129 19.211082,6.53225806 19.211082,6.61290323 Z" id="Shape"></path>
                    <path d="M34.6599937,6.20967742 C34.6599937,5.64516129 34.2597628,5.08064516 33.6193934,5.08064516 C33.6193934,5.08064516 33.5393473,5.08064516 33.5393473,5.08064516 C32.8989779,5.08064516 32.4187008,5.56451613 32.4187008,6.20967742 C32.4187008,6.20967742 32.4187008,6.20967742 32.4187008,6.29032258 L32.4187008,10.0806452 L30.1774079,10.0806452 L30.1774079,6.29032258 C30.1774079,5.64516129 29.6971309,5.16129032 29.0567615,5.16129032 C28.4163921,5.16129032 27.936115,5.64516129 27.936115,6.29032258 L27.936115,10.0806452 L25.6948221,10.0806452 L25.6948221,3.22580645 L27.7760227,3.22580645 L27.8560688,3.9516129 C28.4163921,3.38709677 29.1368076,3.06451613 29.9372694,3.06451613 C30.8177773,2.98387097 31.6182391,3.46774194 32.0985161,4.19354839 C32.6588393,3.46774194 33.4593011,3.06451613 34.4198552,3.06451613 C35.7806402,2.98387097 36.9012866,4.03225806 36.9813328,5.40322581 C36.9813328,5.48387097 36.9813328,5.56451613 36.9813328,5.56451613 L36.9813328,10 L34.7400399,10 L34.7400399,6.20967742 L34.6599937,6.20967742 Z" id="Path"></path>
                    <path d="M45.306135,0.887096774 L45.1460426,2.90322581 C44.1854885,2.5 43.2249344,2.25806452 42.1843341,2.25806452 C41.3838724,2.25806452 40.6634568,2.5 40.6634568,3.14516129 C40.6634568,3.79032258 41.22378,3.87096774 41.7841033,4.03225806 L43.1448882,4.43548387 C44.9059041,4.91935484 45.786412,5.64516129 45.786412,7.17741935 C45.786412,8.9516129 44.2655347,10.1612903 41.9441956,10.1612903 C40.6634568,10.1612903 39.4627642,9.91935484 38.3421177,9.43548387 L38.5022101,7.33870968 C39.5428104,7.82258065 40.6634568,8.06451613 41.7841033,8.06451613 C42.6646112,8.06451613 43.3850268,7.82258065 43.3850268,7.17741935 C43.3850268,6.69354839 43.0648421,6.53225806 42.3444265,6.29032258 L40.8235492,5.88709677 C39.5428104,5.48387097 38.1820254,4.83870968 38.1820254,3.06451613 C38.1820254,1.29032258 39.7029027,-3.55271368e-15 41.9441956,-3.55271368e-15 C43.2249344,0.161290323 44.2655347,0.403225806 45.306135,0.887096774 Z" id="Path"></path>
                    <path d="M47.2272432,12.9032258 L47.2272432,3.22580645 L49.3084437,3.22580645 L49.3884899,3.9516129 C49.8687669,3.38709677 50.6692287,3.06451613 51.4696904,3.06451613 C53.3907986,3.06451613 54.6715374,4.59677419 54.6715374,6.61290323 C54.6715374,8.62903226 53.3907986,10.1612903 51.4696904,10.1612903 C50.7492748,10.1612903 50.0288593,10 49.468536,9.51612903 L49.468536,12.9032258 L47.2272432,12.9032258 Z M49.3884899,6.61290323 C49.3084437,7.41935484 49.9488131,8.14516129 50.7492748,8.14516129 C50.7492748,8.14516129 50.829321,8.14516129 50.829321,8.14516129 C51.6297828,8.14516129 52.3501983,7.5 52.3501983,6.69354839 C52.3501983,6.69354839 52.3501983,6.61290323 52.3501983,6.61290323 C52.3501983,5.80645161 51.7098289,5.16129032 50.9093672,5.08064516 C50.9093672,5.08064516 50.829321,5.08064516 50.829321,5.08064516 C50.1089054,5.08064516 49.3884899,5.72580645 49.3884899,6.61290323 C49.3884899,6.61290323 49.3884899,6.61290323 49.3884899,6.61290323 Z" id="Shape"></path>
                    <path d="M58.2736153,3.79032258 C58.8339385,3.30645161 59.5543541,3.06451613 60.2747696,3.06451613 C61.6355546,2.98387097 62.7562011,4.11290323 62.7562011,5.48387097 C62.7562011,5.56451613 62.7562011,5.56451613 62.7562011,5.64516129 L62.7562011,10.0806452 L60.5149082,10.0806452 L60.5149082,6.29032258 C60.5149082,5.64516129 60.0346311,5.16129032 59.4743079,5.16129032 C59.4743079,5.16129032 59.3942617,5.16129032 59.3942617,5.16129032 C58.8339385,5.16129032 58.2736153,5.56451613 58.2736153,6.20967742 C58.2736153,6.20967742 58.2736153,6.29032258 58.2736153,6.29032258 L58.2736153,10.0806452 L56.0323224,10.0806452 L56.0323224,0 L58.2736153,0 L58.2736153,3.79032258 Z" id="Path"></path>
                    <path d="M70.7608186,9.59677419 C69.9603568,10 69.0798489,10.2419355 68.199341,10.2419355 C65.6378634,10.2419355 64.116986,8.87096774 64.116986,6.69354839 C64.0369399,4.83870968 65.3977248,3.22580645 67.2387869,3.14516129 C67.318833,3.14516129 67.4789254,3.14516129 67.5589716,3.14516129 C69.5601259,3.14516129 71.2410956,4.43548387 70.8408647,7.25806452 L66.2782328,7.25806452 C66.3582789,8.06451613 67.2387869,8.38709677 68.1192948,8.38709677 C68.8397104,8.38709677 69.6401721,8.30645161 70.3605877,7.98387097 L70.7608186,9.59677419 Z M68.8397104,5.88709677 C68.8397104,5.24193548 68.2793871,4.83870968 67.7190639,4.83870968 C67.7190639,4.83870968 67.7190639,4.83870968 67.7190639,4.83870968 C67.0786945,4.75806452 66.4383251,5.24193548 66.3582789,5.88709677 L68.8397104,5.88709677 Z" id="Shape"></path>
                    <path d="M76.2840046,3.06451613 C76.5241431,3.06451613 76.8443278,3.14516129 77.0844664,3.22580645 L76.924374,5.16129032 C76.6842355,5.08064516 76.3640508,5 76.1239123,5 C75.3234505,5 74.6030349,5.48387097 74.6030349,6.77419355 L74.6030349,10.0806452 L72.361742,10.0806452 L72.361742,3.22580645 L74.4429426,3.22580645 L74.5229888,4.19354839 C74.8431735,3.46774194 75.563589,3.06451613 76.2840046,3.06451613 Z" id="Path"></path>
                    <path d="M84.3686683,9.59677419 C83.5682065,10 82.6876986,10.2419355 81.8071907,10.2419355 C79.2457131,10.2419355 77.7248358,8.87096774 77.7248358,6.69354839 C77.6447896,4.83870968 79.0055746,3.22580645 80.8466366,3.14516129 C80.9266828,3.14516129 81.0867751,3.14516129 81.1668213,3.14516129 C83.1679757,3.14516129 84.8489453,4.43548387 84.4487144,7.25806452 L79.8860825,7.25806452 C79.9661287,8.06451613 80.8466366,8.38709677 81.7271445,8.38709677 C82.4475601,8.38709677 83.2480218,8.22580645 83.9684374,7.98387097 L84.3686683,9.59677419 Z M82.5276063,5.88709677 C82.5276063,5.24193548 81.967283,4.83870968 81.4069598,4.83870968 C81.4069598,4.83870968 81.4069598,4.83870968 81.4069598,4.83870968 C80.7665904,4.75806452 80.126221,5.24193548 80.0461748,5.88709677 L82.5276063,5.88709677 Z" id="Shape"></path>
                </g>
                <g id="Group">
                    <ellipse id="Oval" fill="#FFFFFF" cx="14.4083115" cy="14.516129" rx="14.4083115" ry="14.516129"></ellipse>
                    <path d="M15.6090041,11.2096774 C13.7679421,11.2096774 12.1670186,11.8548387 11.0463721,12.983871 L11.0463721,4.35483871 C11.0463721,4.11290323 10.8062336,4.03225806 10.6461413,4.11290323 L8.56494071,5.32258065 C8.48489453,5.32258065 8.48489453,5.40322581 8.48489453,5.48387097 L8.48489453,23.7903226 C8.48489453,23.9516129 8.64498688,24.1129032 8.80507923,24.1129032 L10.8062336,24.1129032 C10.966326,24.1129032 11.1264183,23.9516129 11.1264183,23.7903226 L11.1264183,22.5806452 C12.3271109,23.7096774 13.9280344,24.3548387 15.6890503,24.3548387 C19.4512205,24.3548387 22.2528366,21.5322581 22.2528366,17.8225806 C22.2528366,14.1129032 19.3711743,11.2096774 15.6090041,11.2096774 Z M15.6090041,21.8548387 C13.287665,21.8548387 11.6066954,20.0806452 11.6066954,17.7419355 C11.6066954,15.4032258 13.287665,13.6290323 15.6090041,13.6290323 C17.9303432,13.6290323 19.6113128,15.4032258 19.6113128,17.7419355 C19.6113128,20.0806452 17.9303432,21.8548387 15.6090041,21.8548387 Z" id="Shape" fill="#033D58"></path>
                    <ellipse id="Oval" fill="#FF7C66" cx="22.0126981" cy="9.67741935" rx="1.6009235" ry="1.61290323"></ellipse>
                </g>
            </g>
        </g>
    </g>
</svg>